:SAMPLES-PER-SECOND 30
:FULLY-SPECIFIED
:DEGREES
1782
root  10.8425 37.4704 -5.34873 17.7693 82.0072 12.8263
RightUpLeg  -36.0586 -8.15723 -14.0051
RightLeg  45.7909 -2.50963 -3.08614
RightFoot  2.85813 -1.15064 9.37098
RightToes  0.000481921 0.542163 -0.142578
Spine  34.7182 -0.420782 2.4714
Spine1  -6.39156 0.320346 0.375519
HEad  -24.9277 0.965838 0.242891
LeftShoulder1  8.65948 -14.1707 -42.573
LeftArm  3.94691 0.838117 -37.3679
LeftForeArm  -177.974 -61.8367 -162.677
LeftHand  -0.25398 0.0180481 5.50724
RightShoulder  5.48295 10.6468 32.8033
RightArm  10.4108 -1.89196 43.3496
RightForeArm  166.673 63.0156 160.304
RightHand  -1.35039 3.83721 -17.1955
LeftUpLeg  -31.0255 19.4133 -0.864608
LeftLeg  40.4707 5.22045 5.14982
LeftFoot  -11.6877 0.0574916 -4.16375
LeftToes  1.06245e-005 4.65868e-005 -8.65517e-006
1783
root  10.8482 37.4465 -5.53881 17.4321 81.6376 12.2572
RightUpLeg  -36.4484 -8.76371 -14.5528
RightLeg  45.5682 -1.55607 -2.0202
RightFoot  0.601695 -0.811894 7.71879
RightToes  0.000481921 0.542163 -0.142578
Spine  34.9948 -0.441707 2.77707
Spine1  -6.53053 0.413522 0.205175
HEad  -25.005 0.825342 0.211252
LeftShoulder1  8.70017 -14.2456 -42.5936
LeftArm  3.88437 1.1038 -37.2323
LeftForeArm  -177.749 -61.8463 -162.691
LeftHand  -0.25398 0.0180481 5.50724
RightShoulder  5.47896 10.6648 32.7259
RightArm  10.4132 -1.6846 43.276
RightForeArm  166.217 63.1898 160.117
RightHand  -1.37903 3.87166 -17.4867
LeftUpLeg  -31.4886 20.0967 -1.37299
LeftLeg  40.8034 5.1513 5.14321
LeftFoot  -11.9439 0.0516688 -3.79087
LeftToes  1.06245e-005 4.65868e-005 -8.65517e-006
1784
root  10.8639 37.3985 -5.65824 15.6821 81.4825 10.398
RightUpLeg  -35.4453 -9.02979 -14.6375
RightLeg  43.6618 -4.10343 -4.44347
RightFoot  -3.39653 -0.42071 5.74892
RightToes  0.000481921 0.542163 -0.142578
Spine  35.1227 -0.502809 3.42616
Spine1  -6.50353 0.505132 0.211476
HEad  -24.6187 0.641162 0.270633
LeftShoulder1  8.74465 -14.2906 -42.7105
LeftArm  3.99667 1.10146 -36.9807
LeftForeArm  -177.582 -61.7918 -162.744
LeftHand  -0.25398 0.0180481 5.50724
RightShoulder  5.44189 10.657 32.4853
RightArm  10.3334 -1.50942 43.293
RightForeArm  165.786 63.2832 159.997
RightHand  -1.39109 3.85549 -17.6639
LeftUpLeg  -31.8718 20.1348 -1.36581
LeftLeg  41.324 5.28104 5.35117
LeftFoot  -12.1952 0.0471585 -3.47656
LeftToes  1.06245e-005 4.65868e-005 -8.65517e-006
1785
root  10.8831 37.2837 -5.68576 14.3685 81.3947 8.99518
RightUpLeg  -33.6774 -8.9351 -14.6992
RightLeg  40.7063 -8.59474 -8.12556
RightFoot  -5.81306 -0.2975 5.39364
RightToes  0.000481921 0.542163 -0.142578
Spine  35.1337 -0.518426 3.98593
Spine1  -6.51319 0.607251 0.238095
HEad  -24.0408 0.435376 0.480125
LeftShoulder1  8.76706 -14.301 -42.8004
LeftArm  4.11827 0.969344 -36.7712
LeftForeArm  -177.624 -61.6507 -162.838
LeftHand  -0.25398 0.0180481 5.50724
RightShoulder  5.39641 10.6286 32.2404
RightArm  10.1956 -1.45204 43.4099
RightForeArm  165.988 63.2775 160.022
RightHand  -1.3701 3.81789 -17.473
LeftUpLeg  -32.4104 19.778 -1.18949
LeftLeg  42.2985 5.52642 5.76202
LeftFoot  -12.49 0.0404745 -3.42728
LeftToes  1.06245e-005 4.65868e-005 -8.65517e-006
1786
root  10.8892 37.0888 -5.61428 15.2015 81.1466 9.73138
RightUpLeg  -32.6103 -8.38456 -15.1939
RightLeg  38.9241 -11.401 -9.99767
RightFoot  -5.84929 -0.399934 7.44129
RightToes  0.000481921 0.542163 -0.142578
Spine  35.1457 -0.424752 4.0761
Spine1  -6.5835 0.728466 0.0989616
HEad  -23.7068 0.278155 0.700979
LeftShoulder1  8.79081 -14.3293 -42.8514
LeftArm  4.06106 0.720626 -36.5904
LeftForeArm  -177.862 -61.5409 -162.892
LeftHand  -0.25398 0.0180481 5.50724
RightShoulder  5.38399 10.6196 32.1768
RightArm  10.0506 -1.27974 43.4968
RightForeArm  166.422 63.2804 160.063
RightHand  -1.34195 3.77267 -17.2061
LeftUpLeg  -33.1798 19.2783 -1.19612
LeftLeg  43.7607 5.94175 6.46824
LeftFoot  -12.9453 0.0274947 -3.57562
LeftToes  1.06245e-005 4.65868e-005 -8.65517e-006
1787
root  10.8587 36.8646 -5.48335 16.643 80.6227 11.2294
RightUpLeg  -33.0274 -7.76524 -15.7298
RightLeg  39.52 -11.0333 -9.86362
RightFoot  -5.28338 -0.550192 9.71674
RightToes  0.000481921 0.542163 -0.142578
Spine  35.4241 -0.387706 4.01523
Spine1  -6.51207 0.86194 -0.462704
HEad  -23.8539 0.298546 0.64388
LeftShoulder1  8.85496 -14.3959 -43.0129
LeftArm  3.7212 0.234426 -36.2765
LeftForeArm  -178.2 -61.539 -162.863
LeftHand  -0.25398 0.0180481 5.50724
RightShoulder  5.41006 10.683 32.1899
RightArm  9.94235 -0.640286 43.6385
RightForeArm  166.262 63.4226 159.93
RightHand  -1.32741 3.65437 -17.2369
LeftUpLeg  -33.8414 18.834 -1.19476
LeftLeg  45.3138 6.42707 7.32699
LeftFoot  -13.4934 0.00726957 -3.9107
LeftToes  1.06245e-005 4.65868e-005 -8.65517e-006
1788
root  10.7913 36.6557 -5.33231 16.7456 80.0912 11.6198
RightUpLeg  -34.2336 -7.85989 -15.6755
RightLeg  41.4961 -9.42853 -9.10559
RightFoot  -5.40426 -0.538768 9.63927
RightToes  0.000481921 0.542163 -0.142578
Spine  35.9945 -0.57801 4.22772
Spine1  -6.28557 0.881552 -1.12008
HEad  -24.2048 0.567426 0.250868
LeftShoulder1  8.95519 -14.4771 -43.321
LeftArm  3.25735 -0.436742 -35.9065
LeftForeArm  -178.565 -61.6362 -162.762
LeftHand  -0.25398 0.0180481 5.50724
RightShoulder  5.43898 10.8002 32.0789
RightArm  9.8672 0.415928 43.9752
RightForeArm  165.669 63.6989 159.638
RightHand  -1.32425 3.52882 -17.4259
LeftUpLeg  -34.188 18.4944 -0.878573
LeftLeg  46.6935 6.71815 7.99806
LeftFoot  -14.0151 -0.0211145 -4.49963
LeftToes  1.06245e-005 4.65868e-005 -8.65517e-006
1789
root  10.7032 36.4656 -5.15475 16.7271 79.9011 11.9493
RightUpLeg  -35.19 -8.93833 -15.2225
RightLeg  43.2748 -8.36038 -8.63849
RightFoot  -6.08178 -0.420138 8.22815
RightToes  0.000481921 0.542163 -0.142578
Spine  36.5346 -0.855558 4.46544
Spine1  -6.09911 0.69041 -1.18802
HEad  -24.3188 0.954072 -0.122597
LeftShoulder1  9.05327 -14.5567 -43.6187
LeftArm  3.10244 -1.1468 -35.7793
LeftForeArm  -178.895 -61.8294 -162.597
LeftHand  -0.25398 0.0180481 5.50724
RightShoulder  5.43694 10.8663 31.8888
RightArm  9.70399 1.34787 44.3917
RightForeArm  165.446 63.9192 159.428
RightHand  -1.33693 3.59523 -17.4648
LeftUpLeg  -34.4272 18.1972 -0.455149
LeftLeg  47.8665 6.72311 8.32849
LeftFoot  -14.4431 -0.0523046 -5.12777
LeftToes  1.06245e-005 4.65868e-005 -8.65517e-006
1790
root  10.6149 36.2462 -4.92276 17.9287 79.9191 13.4466
RightUpLeg  -35.869 -10.3606 -14.9499
RightLeg  44.8096 -7.50221 -8.2147
RightFoot  -6.94568 -0.351566 7.94163
RightToes  0.000481921 0.542163 -0.142578
Spine  36.8329 -0.956753 4.40363
Spine1  -6.0294 0.453356 -0.722478
HEad  -24.1359 1.23694 -0.109048
LeftShoulder1  9.12705 -14.6304 -43.8052
LeftArm  3.53682 -1.89923 -35.9687
LeftForeArm  -179.06 -62.0616 -162.418
LeftHand  -0.25398 0.0180481 5.50724
RightShoulder  5.40699 10.8231 31.7934
RightArm  9.30233 1.71502 44.685
RightForeArm  165.604 63.9075 159.454
RightHand  -1.36674 3.81187 -17.4423
LeftUpLeg  -34.8305 18.0815 -0.184112
LeftLeg  49.1166 6.52537 8.45279
LeftFoot  -14.8978 -0.0835288 -5.56302
LeftToes  1.06245e-005 4.65868e-005 -8.65517e-006
1791
root  10.5524 35.9616 -4.63623 19.2314 79.7467 15.1137
RightUpLeg  -36.7228 -11.2732 -14.8723
RightLeg  46.9294 -6.40549 -7.61278
RightFoot  -8.06137 -0.302957 8.65447
RightToes  0.000481921 0.542163 -0.142578
Spine  37.0726 -0.916229 4.28415
Spine1  -5.94548 0.396786 -0.514425
HEad  -23.8999 1.35559 0.185697
LeftShoulder1  9.18376 -14.6888 -43.9429
LeftArm  4.31061 -2.67836 -36.2405
LeftForeArm  -178.935 -62.1538 -162.363
LeftHand  -0.25398 0.0180481 5.50724
RightShoulder  5.37708 10.7453 31.7899
RightArm  8.70124 1.65764 44.8724
RightForeArm  165.494 63.7216 159.601
RightHand  -1.38347 3.85696 -17.5681
LeftUpLeg  -35.2883 18.3352 0.142288
LeftLeg  50.7074 6.16114 8.46534
LeftFoot  -15.5385 -0.127991 -6.02297
LeftToes  1.06245e-005 4.65868e-005 -8.65517e-006
1792
root  10.5269 35.6412 -4.32933 19.0961 79.4058 15.512
RightUpLeg  -37.667 -11.7234 -14.5998
RightLeg  49.5601 -5.45711 -7.18059
RightFoot  -9.50813 -0.206283 8.76612
RightToes  0.000481921 0.542163 -0.142578
Spine  37.3757 -0.987841 4.47441
Spine1  -5.8081 0.438338 -0.782721
HEad  -23.7284 1.448 0.307844
LeftShoulder1  9.23373 -14.7249 -44.1024
LeftArm  4.93447 -3.26841 -36.4399
LeftForeArm  -178.602 -62.0106 -162.496
LeftHand  -0.25398 0.0180481 5.50724
RightShoulder  5.36048 10.7185 31.7441
RightArm  8.14772 1.63191 45.0735
RightForeArm  165.121 63.5731 159.688
RightHand  -1.36577 3.65572 -17.7158
LeftUpLeg  -35.5398 18.6946 0.82692
LeftLeg  52.5301 5.68613 8.37953
LeftFoot  -16.3042 -0.196654 -6.77956
LeftToes  1.06245e-005 4.65868e-005 -8.65517e-006
